<svg width="23" height="23" viewBox="0 0 23 23" fill="none" xmlns="http://www.w3.org/2000/svg">
<path opacity="0.5" d="M16.75 8.62134C19.0338 8.63394 20.2707 8.73579 21.0771 9.54219C22.0001 10.4651 22.0001 11.9498 22.0001 14.9193V15.9693C22.0001 18.9397 22.0001 20.4244 21.0771 21.3474C20.1552 22.2693 18.6694 22.2693 15.7 22.2693H7.30002C4.33061 22.2693 2.84485 22.2693 1.92295 21.3474C1 20.4234 1 18.9397 1 15.9693V14.9193C1 11.9498 1 10.4651 1.92295 9.54219C2.72935 8.73579 3.96626 8.63394 6.25001 8.62134" stroke="white" stroke-width="1.13674" stroke-linecap="round"/>
<path d="M11.4996 1.26929V14.9193M11.4996 14.9193L8.34961 11.2443M11.4996 14.9193L14.6496 11.2443" stroke="white" stroke-width="1.13674" stroke-linecap="round" stroke-linejoin="round"/>
</svg>
