<svg width="30" height="29" viewBox="0 0 30 29" fill="none" xmlns="http://www.w3.org/2000/svg">
<path d="M26.7646 12.2504H25.798V12.2006H14.998V17.0006H21.7798C20.7904 19.7948 18.1318 21.8006 14.998 21.8006C11.0218 21.8006 7.79805 18.5768 7.79805 14.6006C7.79805 10.6244 11.0218 7.40065 14.998 7.40065C16.8334 7.40065 18.5032 8.09305 19.7746 9.22405L23.1688 5.82985C21.0256 3.83245 18.1588 2.60065 14.998 2.60065C8.37105 2.60065 2.99805 7.97365 2.99805 14.6006C2.99805 21.2276 8.37105 26.6006 14.998 26.6006C21.625 26.6006 26.998 21.2276 26.998 14.6006C26.998 13.796 26.9152 13.0106 26.7646 12.2504Z" fill="#FFC107"/>
<path d="M4.38086 9.01525L8.32346 11.9066C9.39026 9.26545 11.9739 7.40065 14.9973 7.40065C16.8327 7.40065 18.5025 8.09305 19.7739 9.22405L23.1681 5.82985C21.0249 3.83245 18.1581 2.60065 14.9973 2.60065C10.3881 2.60065 6.39086 5.20285 4.38086 9.01525Z" fill="#FF3D00"/>
<path d="M14.9994 26.6006C18.099 26.6006 20.9154 25.4144 23.0448 23.4854L19.3308 20.3426C18.0855 21.2897 16.5639 21.8019 14.9994 21.8006C11.8782 21.8006 9.22801 19.8104 8.22961 17.033L4.31641 20.048C6.30241 23.9342 10.3356 26.6006 14.9994 26.6006Z" fill="#4CAF50"/>
<path d="M26.7646 12.2502H25.798V12.2004H14.998V17.0004H21.7798C21.3066 18.3303 20.4541 19.4923 19.3276 20.343L19.3294 20.3418L23.0434 23.4846C22.7806 23.7234 26.998 20.6004 26.998 14.6004C26.998 13.7958 26.9152 13.0104 26.7646 12.2502Z" fill="#1976D2"/>
</svg>
