<svg width="31" height="31" viewBox="0 0 31 31" fill="none" xmlns="http://www.w3.org/2000/svg">
<path fill-rule="evenodd" clip-rule="evenodd" d="M27.0849 7.59328C27.2015 7.77038 27.2535 7.98233 27.232 8.19332C27.2106 8.40432 27.1169 8.60144 26.9669 8.75139L15.6769 20.0402C15.5614 20.1557 15.4173 20.2383 15.2593 20.2797L10.5569 21.5078C10.4014 21.5484 10.2381 21.5476 10.083 21.5055C9.92802 21.4634 9.78669 21.3815 9.6731 21.2679C9.55951 21.1543 9.4776 21.013 9.43551 20.8579C9.39341 20.7029 9.39259 20.5396 9.43313 20.3841L10.6613 15.6829C10.698 15.5421 10.7655 15.4112 10.859 15.2997L22.1908 3.97525C22.3635 3.80276 22.5976 3.70587 22.8417 3.70587C23.0858 3.70587 23.3199 3.80276 23.4926 3.97525L26.9669 7.44836C27.0099 7.4936 27.0493 7.54205 27.0849 7.59328ZM25.013 8.09926L22.8417 5.92918L12.3806 16.3903L11.613 19.3292L14.5519 18.5616L25.013 8.09926Z" fill="#FF3951"/>
<path d="M24.8571 22.0162C25.1928 19.1472 25.3 16.2562 25.1777 13.3702C25.1748 13.3022 25.1861 13.2343 25.2108 13.1709C25.2355 13.1075 25.2732 13.0499 25.3214 13.0018L26.5298 11.7933C26.5628 11.7601 26.6048 11.7372 26.6505 11.7272C26.6963 11.7172 26.7439 11.7207 26.7878 11.7372C26.8316 11.7536 26.8698 11.7824 26.8977 11.8201C26.9255 11.8577 26.9419 11.9026 26.9449 11.9493C27.1718 15.3773 27.0854 18.8188 26.687 22.2311C26.3972 24.7143 24.4027 26.6609 21.9305 26.9372C17.6387 27.4122 13.3075 27.4122 9.01566 26.9372C6.54469 26.6609 4.549 24.7143 4.25916 22.2311C3.75085 17.8779 3.75085 13.4803 4.25916 9.1271C4.549 6.64384 6.54346 4.69728 9.01566 4.42095C12.2732 4.06117 15.555 3.97367 18.8271 4.15936C18.8739 4.16273 18.9188 4.17944 18.9564 4.20752C18.994 4.2356 19.0228 4.27388 19.0394 4.31782C19.0559 4.36175 19.0595 4.40951 19.0497 4.45543C19.04 4.50135 19.0173 4.54352 18.9843 4.57692L17.7648 5.79522C17.7171 5.84292 17.6601 5.8803 17.5973 5.90502C17.5346 5.92974 17.4674 5.94128 17.4 5.9389C14.6696 5.84538 11.936 5.95005 9.22075 6.25207C8.42732 6.33989 7.68665 6.69263 7.11841 7.2533C6.55016 7.81397 6.18752 8.54983 6.08905 9.34202C5.5964 13.5524 5.5964 17.8058 6.08905 22.0162C6.18752 22.8084 6.55016 23.5442 7.11841 24.1049C7.68665 24.6656 8.42732 25.0183 9.22075 25.1061C13.3411 25.5667 17.6051 25.5667 21.7267 25.1061C22.5201 25.0183 23.2608 24.6656 23.829 24.1049C24.3973 23.5442 24.7587 22.8084 24.8571 22.0162Z" fill="#FF3951"/>
</svg>
